<svg width="413" height="97" viewBox="0 0 413 97" fill="none" xmlns="http://www.w3.org/2000/svg">
<g clipPath="url(#clip0_229_2)">
<path d="M39.13 43.33L54.88 70.62H33.31L22.72 47.91L18.71 70.62H0L12.41 0H31.12L24.63 37.22L42.86 17.08H64.71L39.13 43.32V43.33Z" fill="white"/>
<path d="M116.43 21.85C119.8 25.48 121.49 30.47 121.49 36.83C121.49 39.18 121.27 41.51 120.82 43.8C119.8 49.4 117.96 54.28 115.29 58.45C112.62 62.62 109.37 65.8 105.56 67.99C101.75 70.18 97.7 71.28 93.44 71.28C89.62 71.28 86.5 70.47 84.09 68.85C81.67 67.23 80.05 64.99 79.22 62.12L73.21 96.19H54.41L68.34 17.07H87.14L85.61 25.56C87.39 22.7 89.81 20.45 92.86 18.83C95.91 17.21 99.32 16.4 103.07 16.4C108.61 16.4 113.06 18.21 116.43 21.84V21.85ZM97.73 51.96C99.89 50.02 101.26 47.3 101.83 43.8C102.02 42.85 102.12 41.92 102.12 41.03C102.12 38.42 101.39 36.4 99.93 34.97C98.47 33.54 96.49 32.82 94.01 32.82C91.15 32.82 88.65 33.81 86.52 35.78C84.39 37.75 83 40.43 82.37 43.8C82.18 44.82 82.08 45.77 82.08 46.66C82.08 49.27 82.81 51.29 84.28 52.72C85.74 54.15 87.68 54.87 90.1 54.87C93.03 54.87 95.57 53.9 97.73 51.96Z" fill="white"/>
<path d="M160.19 18.9C162.83 20.56 164.56 22.78 165.39 25.58L166.92 17.09H185.63L176.09 70.63H157.48L159.01 62.14C157.23 64.94 154.81 67.17 151.76 68.82C148.71 70.48 145.27 71.3 141.45 71.3C135.66 71.3 131.13 69.44 127.85 65.72C124.57 62 122.93 56.83 122.93 50.21C122.93 47.92 123.18 45.25 123.69 42.19C124.64 36.91 126.42 32.33 129.03 28.45C131.64 24.57 134.79 21.59 138.48 19.53C142.17 17.46 146.08 16.43 150.22 16.43C154.36 16.43 157.55 17.26 160.19 18.91V18.9ZM146.83 35.74C144.7 37.68 143.31 40.37 142.68 43.8C142.49 44.75 142.39 45.68 142.39 46.57C142.39 49.24 143.12 51.29 144.59 52.73C146.05 54.16 148.03 54.88 150.51 54.88C153.31 54.88 155.81 53.89 158 51.92C160.2 49.95 161.58 47.24 162.15 43.81C162.34 42.86 162.44 41.93 162.44 41.04C162.44 38.43 161.71 36.41 160.24 34.98C158.78 33.55 156.84 32.83 154.42 32.83C151.49 32.83 148.96 33.8 146.83 35.74Z" fill="white"/>
<path d="M247.84 17.08L238.39 70.62H219.59L221.12 61.74C219.02 64.6 216.36 66.88 213.15 68.56C209.94 70.25 206.39 71.09 202.51 71.09C197.36 71.09 193.35 69.6 190.48 66.6C187.62 63.61 186.19 59.44 186.19 54.1C186.19 52.19 186.38 50.19 186.76 48.09L192.29 17.07H210.9L205.84 45.8C205.71 46.37 205.65 47.17 205.65 48.19C205.65 50.54 206.3 52.37 207.61 53.68C208.91 54.98 210.74 55.64 213.1 55.64C215.9 55.64 218.27 54.75 220.21 52.97C222.15 51.19 223.41 48.68 223.98 45.43V45.91L229.04 17.09H247.84V17.08Z" fill="white"/>
<path d="M303.58 21.09C306.44 24.08 307.87 28.25 307.87 33.59C307.87 35.44 307.68 37.41 307.3 39.51L301.86 70.62H283.15L288.21 41.89C288.34 41.32 288.4 40.49 288.4 39.41C288.4 37.06 287.75 35.23 286.44 33.92C285.14 32.62 283.31 31.96 280.95 31.96C278.15 31.96 275.78 32.85 273.84 34.63C271.9 36.41 270.64 38.92 270.07 42.17V41.79L265.01 70.61H246.3L255.65 17.07H274.45L272.83 26.04C274.93 23.18 277.59 20.89 280.8 19.17C284.01 17.45 287.59 16.59 291.54 16.59C296.69 16.59 300.7 18.09 303.57 21.08L303.58 21.09Z" fill="white"/>
<path d="M360.08 22.05C364.15 25.8 366.19 30.89 366.19 37.32C366.19 38.91 366.03 40.76 365.71 42.86C365.14 45.02 364.69 46.49 364.37 47.25H329.06C329 47.76 328.96 48.49 328.96 49.45C328.96 54.03 331.09 56.32 335.35 56.32C337.19 56.32 338.8 55.88 340.17 54.98C341.54 54.09 342.57 52.91 343.27 51.45H363.12C360.96 57.3 357.23 62.08 351.95 65.77C346.67 69.46 340.56 71.31 333.63 71.31C326.7 71.31 321.09 69.37 317.02 65.49C312.95 61.61 310.91 56.27 310.91 49.46C310.91 47.42 311.1 45.26 311.48 42.97C312.43 37.56 314.42 32.85 317.44 28.85C320.46 24.84 324.2 21.77 328.65 19.64C333.1 17.51 337.97 16.44 343.25 16.44C350.38 16.44 355.97 18.32 360.05 22.07L360.08 22.05ZM347.48 37.32C347.48 35.28 346.84 33.74 345.57 32.69C344.3 31.64 342.67 31.12 340.7 31.12C338.22 31.12 336.09 31.82 334.31 33.22C332.53 34.62 331.26 36.69 330.49 39.42H347.29C347.42 38.91 347.48 38.21 347.48 37.32Z" fill="white"/>
<path d="M401.73 19.47C405.2 17.56 408.74 16.61 412.37 16.61L408.74 36.65H403.4C399.2 36.65 395.91 37.46 393.52 39.08C391.13 40.7 389.59 43.52 388.89 47.53L384.79 70.63H366.08L375.43 17.09H394.23L392.42 27.11C395.16 23.93 398.26 21.38 401.72 19.48L401.73 19.47Z" fill="white"/>
</g>
<defs>
<clipPath id="clip0_229_2">
<rect width="413" height="97" fill="white"/>
</clipPath>
</defs>
</svg>
